<svg xmlns="http://www.w3.org/2000/svg" viewBox="0 0 880 380" width="880" height="380" font-family="ui-sans-serif, -apple-system, 'Segoe UI', Roboto, Helvetica, Arial, sans-serif">
<rect width="880" height="380" fill="#FBFAF7"/>
<text x="24.00" y="30.00" font-size="13" fill="#22201C" text-anchor="start" font-weight="600" opacity="1">Node position is an algorithm artifact; a matrix has no layout</text>
<text x="60.00" y="62.00" font-size="11.5" fill="#22201C" text-anchor="start" font-weight="400" opacity="1">Force layout, seed 5</text>
<rect x="60.00" y="74.00" width="200.00" height="190.00" fill="#FFFFFF" stroke="#D6D2C8" stroke-width="1" rx="0" opacity="1"/>
<line x1="195.75" y1="201.50" x2="192.80" y2="232.21" stroke="#D6D2C8" stroke-width="1" opacity="1" stroke-linecap="round"/>
<line x1="83.22" y1="216.18" x2="70.00" y2="254.00" stroke="#D6D2C8" stroke-width="1" opacity="1" stroke-linecap="round"/>
<line x1="195.75" y1="201.50" x2="220.90" y2="124.65" stroke="#D6D2C8" stroke-width="1" opacity="1" stroke-linecap="round"/>
<line x1="185.70" y1="252.64" x2="147.74" y2="233.92" stroke="#D6D2C8" stroke-width="1" opacity="1" stroke-linecap="round"/>
<line x1="95.90" y1="250.59" x2="70.00" y2="236.69" stroke="#D6D2C8" stroke-width="1" opacity="1" stroke-linecap="round"/>
<line x1="147.74" y1="233.92" x2="83.22" y2="216.18" stroke="#D6D2C8" stroke-width="1" opacity="1" stroke-linecap="round"/>
<line x1="215.54" y1="84.00" x2="250.00" y2="84.00" stroke="#D6D2C8" stroke-width="1" opacity="1" stroke-linecap="round"/>
<line x1="147.74" y1="233.92" x2="95.90" y2="250.59" stroke="#D6D2C8" stroke-width="1" opacity="1" stroke-linecap="round"/>
<line x1="83.22" y1="216.18" x2="70.00" y2="160.82" stroke="#D6D2C8" stroke-width="1" opacity="1" stroke-linecap="round"/>
<line x1="83.22" y1="216.18" x2="70.00" y2="236.69" stroke="#D6D2C8" stroke-width="1" opacity="1" stroke-linecap="round"/>
<line x1="147.74" y1="233.92" x2="192.80" y2="232.21" stroke="#D6D2C8" stroke-width="1" opacity="1" stroke-linecap="round"/>
<line x1="215.54" y1="84.00" x2="234.64" y2="84.00" stroke="#D6D2C8" stroke-width="1" opacity="1" stroke-linecap="round"/>
<line x1="185.70" y1="252.64" x2="192.80" y2="232.21" stroke="#D6D2C8" stroke-width="1" opacity="1" stroke-linecap="round"/>
<line x1="234.64" y1="84.00" x2="220.90" y2="124.65" stroke="#D6D2C8" stroke-width="1" opacity="1" stroke-linecap="round"/>
<line x1="70.00" y1="254.00" x2="70.00" y2="236.69" stroke="#D6D2C8" stroke-width="1" opacity="1" stroke-linecap="round"/>
<line x1="83.22" y1="216.18" x2="95.90" y2="250.59" stroke="#D6D2C8" stroke-width="1" opacity="1" stroke-linecap="round"/>
<line x1="185.70" y1="252.64" x2="195.75" y2="201.50" stroke="#D6D2C8" stroke-width="1" opacity="1" stroke-linecap="round"/>
<line x1="215.54" y1="84.00" x2="220.90" y2="124.65" stroke="#D6D2C8" stroke-width="1" opacity="1" stroke-linecap="round"/>
<line x1="147.74" y1="233.92" x2="195.75" y2="201.50" stroke="#D6D2C8" stroke-width="1" opacity="1" stroke-linecap="round"/>
<line x1="234.64" y1="84.00" x2="250.00" y2="84.00" stroke="#D6D2C8" stroke-width="1" opacity="1" stroke-linecap="round"/>
<line x1="70.00" y1="254.00" x2="95.90" y2="250.59" stroke="#D6D2C8" stroke-width="1" opacity="1" stroke-linecap="round"/>
<circle cx="185.70" cy="252.64" r="6.00" fill="#C0503A" stroke="none" stroke-width="1" opacity="1"/>
<circle cx="250.00" cy="254.00" r="6.00" fill="#C0503A" stroke="none" stroke-width="1" opacity="1"/>
<circle cx="147.74" cy="233.92" r="6.00" fill="#C0503A" stroke="none" stroke-width="1" opacity="1"/>
<circle cx="195.75" cy="201.50" r="6.00" fill="#C0503A" stroke="none" stroke-width="1" opacity="1"/>
<circle cx="192.80" cy="232.21" r="6.00" fill="#C0503A" stroke="none" stroke-width="1" opacity="1"/>
<circle cx="83.22" cy="216.18" r="6.00" fill="#3A6EA5" stroke="none" stroke-width="1" opacity="1"/>
<circle cx="70.00" cy="160.82" r="6.00" fill="#3A6EA5" stroke="none" stroke-width="1" opacity="1"/>
<circle cx="70.00" cy="254.00" r="6.00" fill="#3A6EA5" stroke="none" stroke-width="1" opacity="1"/>
<circle cx="95.90" cy="250.59" r="6.00" fill="#3A6EA5" stroke="none" stroke-width="1" opacity="1"/>
<circle cx="70.00" cy="236.69" r="6.00" fill="#3A6EA5" stroke="none" stroke-width="1" opacity="1"/>
<circle cx="215.54" cy="84.00" r="6.00" fill="#6E8B3D" stroke="none" stroke-width="1" opacity="1"/>
<circle cx="234.64" cy="84.00" r="6.00" fill="#6E8B3D" stroke="none" stroke-width="1" opacity="1"/>
<circle cx="250.00" cy="84.00" r="6.00" fill="#6E8B3D" stroke="none" stroke-width="1" opacity="1"/>
<circle cx="220.90" cy="124.65" r="6.00" fill="#6E8B3D" stroke="none" stroke-width="1" opacity="1"/>
<text x="310.00" y="62.00" font-size="11.5" fill="#22201C" text-anchor="start" font-weight="400" opacity="1">Force layout, seed 19</text>
<rect x="310.00" y="74.00" width="200.00" height="190.00" fill="#FFFFFF" stroke="#D6D2C8" stroke-width="1" rx="0" opacity="1"/>
<line x1="457.55" y1="143.28" x2="439.76" y2="95.88" stroke="#D6D2C8" stroke-width="1" opacity="1" stroke-linecap="round"/>
<line x1="329.87" y1="121.39" x2="320.00" y2="168.41" stroke="#D6D2C8" stroke-width="1" opacity="1" stroke-linecap="round"/>
<line x1="457.55" y1="143.28" x2="499.87" y2="213.70" stroke="#D6D2C8" stroke-width="1" opacity="1" stroke-linecap="round"/>
<line x1="439.99" y1="117.34" x2="398.87" y2="120.55" stroke="#D6D2C8" stroke-width="1" opacity="1" stroke-linecap="round"/>
<line x1="345.89" y1="144.47" x2="320.00" y2="147.40" stroke="#D6D2C8" stroke-width="1" opacity="1" stroke-linecap="round"/>
<line x1="398.87" y1="120.55" x2="329.87" y2="121.39" stroke="#D6D2C8" stroke-width="1" opacity="1" stroke-linecap="round"/>
<line x1="486.18" y1="254.00" x2="464.28" y2="254.00" stroke="#D6D2C8" stroke-width="1" opacity="1" stroke-linecap="round"/>
<line x1="398.87" y1="120.55" x2="345.89" y2="144.47" stroke="#D6D2C8" stroke-width="1" opacity="1" stroke-linecap="round"/>
<line x1="329.87" y1="121.39" x2="320.00" y2="84.00" stroke="#D6D2C8" stroke-width="1" opacity="1" stroke-linecap="round"/>
<line x1="329.87" y1="121.39" x2="320.00" y2="147.40" stroke="#D6D2C8" stroke-width="1" opacity="1" stroke-linecap="round"/>
<line x1="398.87" y1="120.55" x2="439.76" y2="95.88" stroke="#D6D2C8" stroke-width="1" opacity="1" stroke-linecap="round"/>
<line x1="486.18" y1="254.00" x2="500.00" y2="254.00" stroke="#D6D2C8" stroke-width="1" opacity="1" stroke-linecap="round"/>
<line x1="439.99" y1="117.34" x2="439.76" y2="95.88" stroke="#D6D2C8" stroke-width="1" opacity="1" stroke-linecap="round"/>
<line x1="500.00" y1="254.00" x2="499.87" y2="213.70" stroke="#D6D2C8" stroke-width="1" opacity="1" stroke-linecap="round"/>
<line x1="320.00" y1="168.41" x2="320.00" y2="147.40" stroke="#D6D2C8" stroke-width="1" opacity="1" stroke-linecap="round"/>
<line x1="329.87" y1="121.39" x2="345.89" y2="144.47" stroke="#D6D2C8" stroke-width="1" opacity="1" stroke-linecap="round"/>
<line x1="439.99" y1="117.34" x2="457.55" y2="143.28" stroke="#D6D2C8" stroke-width="1" opacity="1" stroke-linecap="round"/>
<line x1="486.18" y1="254.00" x2="499.87" y2="213.70" stroke="#D6D2C8" stroke-width="1" opacity="1" stroke-linecap="round"/>
<line x1="398.87" y1="120.55" x2="457.55" y2="143.28" stroke="#D6D2C8" stroke-width="1" opacity="1" stroke-linecap="round"/>
<line x1="500.00" y1="254.00" x2="464.28" y2="254.00" stroke="#D6D2C8" stroke-width="1" opacity="1" stroke-linecap="round"/>
<line x1="320.00" y1="168.41" x2="345.89" y2="144.47" stroke="#D6D2C8" stroke-width="1" opacity="1" stroke-linecap="round"/>
<circle cx="439.99" cy="117.34" r="6.00" fill="#C0503A" stroke="none" stroke-width="1" opacity="1"/>
<circle cx="500.00" cy="84.00" r="6.00" fill="#C0503A" stroke="none" stroke-width="1" opacity="1"/>
<circle cx="398.87" cy="120.55" r="6.00" fill="#C0503A" stroke="none" stroke-width="1" opacity="1"/>
<circle cx="457.55" cy="143.28" r="6.00" fill="#C0503A" stroke="none" stroke-width="1" opacity="1"/>
<circle cx="439.76" cy="95.88" r="6.00" fill="#C0503A" stroke="none" stroke-width="1" opacity="1"/>
<circle cx="329.87" cy="121.39" r="6.00" fill="#3A6EA5" stroke="none" stroke-width="1" opacity="1"/>
<circle cx="320.00" cy="84.00" r="6.00" fill="#3A6EA5" stroke="none" stroke-width="1" opacity="1"/>
<circle cx="320.00" cy="168.41" r="6.00" fill="#3A6EA5" stroke="none" stroke-width="1" opacity="1"/>
<circle cx="345.89" cy="144.47" r="6.00" fill="#3A6EA5" stroke="none" stroke-width="1" opacity="1"/>
<circle cx="320.00" cy="147.40" r="6.00" fill="#3A6EA5" stroke="none" stroke-width="1" opacity="1"/>
<circle cx="486.18" cy="254.00" r="6.00" fill="#6E8B3D" stroke="none" stroke-width="1" opacity="1"/>
<circle cx="500.00" cy="254.00" r="6.00" fill="#6E8B3D" stroke="none" stroke-width="1" opacity="1"/>
<circle cx="464.28" cy="254.00" r="6.00" fill="#6E8B3D" stroke="none" stroke-width="1" opacity="1"/>
<circle cx="499.87" cy="213.70" r="6.00" fill="#6E8B3D" stroke="none" stroke-width="1" opacity="1"/>
<text x="570.00" y="62.00" font-size="11.5" fill="#22201C" text-anchor="start" font-weight="400" opacity="1">Adjacency matrix, ordered by cluster</text>
<rect x="590.00" y="74.00" width="12.00" height="12.00" fill="#FFFFFF" stroke="#D6D2C8" stroke-width="0.5" rx="0" opacity="1"/>
<rect x="603.00" y="74.00" width="12.00" height="12.00" fill="#FFFFFF" stroke="#D6D2C8" stroke-width="0.5" rx="0" opacity="1"/>
<rect x="616.00" y="74.00" width="12.00" height="12.00" fill="#22201C" stroke="#D6D2C8" stroke-width="0.5" rx="0" opacity="1"/>
<rect x="629.00" y="74.00" width="12.00" height="12.00" fill="#22201C" stroke="#D6D2C8" stroke-width="0.5" rx="0" opacity="1"/>
<rect x="642.00" y="74.00" width="12.00" height="12.00" fill="#22201C" stroke="#D6D2C8" stroke-width="0.5" rx="0" opacity="1"/>
<rect x="655.00" y="74.00" width="12.00" height="12.00" fill="#FFFFFF" stroke="#D6D2C8" stroke-width="0.5" rx="0" opacity="1"/>
<rect x="668.00" y="74.00" width="12.00" height="12.00" fill="#FFFFFF" stroke="#D6D2C8" stroke-width="0.5" rx="0" opacity="1"/>
<rect x="681.00" y="74.00" width="12.00" height="12.00" fill="#FFFFFF" stroke="#D6D2C8" stroke-width="0.5" rx="0" opacity="1"/>
<rect x="694.00" y="74.00" width="12.00" height="12.00" fill="#FFFFFF" stroke="#D6D2C8" stroke-width="0.5" rx="0" opacity="1"/>
<rect x="707.00" y="74.00" width="12.00" height="12.00" fill="#FFFFFF" stroke="#D6D2C8" stroke-width="0.5" rx="0" opacity="1"/>
<rect x="720.00" y="74.00" width="12.00" height="12.00" fill="#FFFFFF" stroke="#D6D2C8" stroke-width="0.5" rx="0" opacity="1"/>
<rect x="733.00" y="74.00" width="12.00" height="12.00" fill="#FFFFFF" stroke="#D6D2C8" stroke-width="0.5" rx="0" opacity="1"/>
<rect x="746.00" y="74.00" width="12.00" height="12.00" fill="#FFFFFF" stroke="#D6D2C8" stroke-width="0.5" rx="0" opacity="1"/>
<rect x="759.00" y="74.00" width="12.00" height="12.00" fill="#FFFFFF" stroke="#D6D2C8" stroke-width="0.5" rx="0" opacity="1"/>
<rect x="590.00" y="87.00" width="12.00" height="12.00" fill="#FFFFFF" stroke="#D6D2C8" stroke-width="0.5" rx="0" opacity="1"/>
<rect x="603.00" y="87.00" width="12.00" height="12.00" fill="#FFFFFF" stroke="#D6D2C8" stroke-width="0.5" rx="0" opacity="1"/>
<rect x="616.00" y="87.00" width="12.00" height="12.00" fill="#FFFFFF" stroke="#D6D2C8" stroke-width="0.5" rx="0" opacity="1"/>
<rect x="629.00" y="87.00" width="12.00" height="12.00" fill="#FFFFFF" stroke="#D6D2C8" stroke-width="0.5" rx="0" opacity="1"/>
<rect x="642.00" y="87.00" width="12.00" height="12.00" fill="#FFFFFF" stroke="#D6D2C8" stroke-width="0.5" rx="0" opacity="1"/>
<rect x="655.00" y="87.00" width="12.00" height="12.00" fill="#FFFFFF" stroke="#D6D2C8" stroke-width="0.5" rx="0" opacity="1"/>
<rect x="668.00" y="87.00" width="12.00" height="12.00" fill="#FFFFFF" stroke="#D6D2C8" stroke-width="0.5" rx="0" opacity="1"/>
<rect x="681.00" y="87.00" width="12.00" height="12.00" fill="#FFFFFF" stroke="#D6D2C8" stroke-width="0.5" rx="0" opacity="1"/>
<rect x="694.00" y="87.00" width="12.00" height="12.00" fill="#FFFFFF" stroke="#D6D2C8" stroke-width="0.5" rx="0" opacity="1"/>
<rect x="707.00" y="87.00" width="12.00" height="12.00" fill="#FFFFFF" stroke="#D6D2C8" stroke-width="0.5" rx="0" opacity="1"/>
<rect x="720.00" y="87.00" width="12.00" height="12.00" fill="#FFFFFF" stroke="#D6D2C8" stroke-width="0.5" rx="0" opacity="1"/>
<rect x="733.00" y="87.00" width="12.00" height="12.00" fill="#FFFFFF" stroke="#D6D2C8" stroke-width="0.5" rx="0" opacity="1"/>
<rect x="746.00" y="87.00" width="12.00" height="12.00" fill="#FFFFFF" stroke="#D6D2C8" stroke-width="0.5" rx="0" opacity="1"/>
<rect x="759.00" y="87.00" width="12.00" height="12.00" fill="#FFFFFF" stroke="#D6D2C8" stroke-width="0.5" rx="0" opacity="1"/>
<rect x="590.00" y="100.00" width="12.00" height="12.00" fill="#22201C" stroke="#D6D2C8" stroke-width="0.5" rx="0" opacity="1"/>
<rect x="603.00" y="100.00" width="12.00" height="12.00" fill="#FFFFFF" stroke="#D6D2C8" stroke-width="0.5" rx="0" opacity="1"/>
<rect x="616.00" y="100.00" width="12.00" height="12.00" fill="#FFFFFF" stroke="#D6D2C8" stroke-width="0.5" rx="0" opacity="1"/>
<rect x="629.00" y="100.00" width="12.00" height="12.00" fill="#22201C" stroke="#D6D2C8" stroke-width="0.5" rx="0" opacity="1"/>
<rect x="642.00" y="100.00" width="12.00" height="12.00" fill="#22201C" stroke="#D6D2C8" stroke-width="0.5" rx="0" opacity="1"/>
<rect x="655.00" y="100.00" width="12.00" height="12.00" fill="#22201C" stroke="#D6D2C8" stroke-width="0.5" rx="0" opacity="1"/>
<rect x="668.00" y="100.00" width="12.00" height="12.00" fill="#FFFFFF" stroke="#D6D2C8" stroke-width="0.5" rx="0" opacity="1"/>
<rect x="681.00" y="100.00" width="12.00" height="12.00" fill="#FFFFFF" stroke="#D6D2C8" stroke-width="0.5" rx="0" opacity="1"/>
<rect x="694.00" y="100.00" width="12.00" height="12.00" fill="#22201C" stroke="#D6D2C8" stroke-width="0.5" rx="0" opacity="1"/>
<rect x="707.00" y="100.00" width="12.00" height="12.00" fill="#FFFFFF" stroke="#D6D2C8" stroke-width="0.5" rx="0" opacity="1"/>
<rect x="720.00" y="100.00" width="12.00" height="12.00" fill="#FFFFFF" stroke="#D6D2C8" stroke-width="0.5" rx="0" opacity="1"/>
<rect x="733.00" y="100.00" width="12.00" height="12.00" fill="#FFFFFF" stroke="#D6D2C8" stroke-width="0.5" rx="0" opacity="1"/>
<rect x="746.00" y="100.00" width="12.00" height="12.00" fill="#FFFFFF" stroke="#D6D2C8" stroke-width="0.5" rx="0" opacity="1"/>
<rect x="759.00" y="100.00" width="12.00" height="12.00" fill="#FFFFFF" stroke="#D6D2C8" stroke-width="0.5" rx="0" opacity="1"/>
<rect x="590.00" y="113.00" width="12.00" height="12.00" fill="#22201C" stroke="#D6D2C8" stroke-width="0.5" rx="0" opacity="1"/>
<rect x="603.00" y="113.00" width="12.00" height="12.00" fill="#FFFFFF" stroke="#D6D2C8" stroke-width="0.5" rx="0" opacity="1"/>
<rect x="616.00" y="113.00" width="12.00" height="12.00" fill="#22201C" stroke="#D6D2C8" stroke-width="0.5" rx="0" opacity="1"/>
<rect x="629.00" y="113.00" width="12.00" height="12.00" fill="#FFFFFF" stroke="#D6D2C8" stroke-width="0.5" rx="0" opacity="1"/>
<rect x="642.00" y="113.00" width="12.00" height="12.00" fill="#22201C" stroke="#D6D2C8" stroke-width="0.5" rx="0" opacity="1"/>
<rect x="655.00" y="113.00" width="12.00" height="12.00" fill="#FFFFFF" stroke="#D6D2C8" stroke-width="0.5" rx="0" opacity="1"/>
<rect x="668.00" y="113.00" width="12.00" height="12.00" fill="#FFFFFF" stroke="#D6D2C8" stroke-width="0.5" rx="0" opacity="1"/>
<rect x="681.00" y="113.00" width="12.00" height="12.00" fill="#FFFFFF" stroke="#D6D2C8" stroke-width="0.5" rx="0" opacity="1"/>
<rect x="694.00" y="113.00" width="12.00" height="12.00" fill="#FFFFFF" stroke="#D6D2C8" stroke-width="0.5" rx="0" opacity="1"/>
<rect x="707.00" y="113.00" width="12.00" height="12.00" fill="#FFFFFF" stroke="#D6D2C8" stroke-width="0.5" rx="0" opacity="1"/>
<rect x="720.00" y="113.00" width="12.00" height="12.00" fill="#FFFFFF" stroke="#D6D2C8" stroke-width="0.5" rx="0" opacity="1"/>
<rect x="733.00" y="113.00" width="12.00" height="12.00" fill="#FFFFFF" stroke="#D6D2C8" stroke-width="0.5" rx="0" opacity="1"/>
<rect x="746.00" y="113.00" width="12.00" height="12.00" fill="#FFFFFF" stroke="#D6D2C8" stroke-width="0.5" rx="0" opacity="1"/>
<rect x="759.00" y="113.00" width="12.00" height="12.00" fill="#22201C" stroke="#D6D2C8" stroke-width="0.5" rx="0" opacity="1"/>
<rect x="590.00" y="126.00" width="12.00" height="12.00" fill="#22201C" stroke="#D6D2C8" stroke-width="0.5" rx="0" opacity="1"/>
<rect x="603.00" y="126.00" width="12.00" height="12.00" fill="#FFFFFF" stroke="#D6D2C8" stroke-width="0.5" rx="0" opacity="1"/>
<rect x="616.00" y="126.00" width="12.00" height="12.00" fill="#22201C" stroke="#D6D2C8" stroke-width="0.5" rx="0" opacity="1"/>
<rect x="629.00" y="126.00" width="12.00" height="12.00" fill="#22201C" stroke="#D6D2C8" stroke-width="0.5" rx="0" opacity="1"/>
<rect x="642.00" y="126.00" width="12.00" height="12.00" fill="#FFFFFF" stroke="#D6D2C8" stroke-width="0.5" rx="0" opacity="1"/>
<rect x="655.00" y="126.00" width="12.00" height="12.00" fill="#FFFFFF" stroke="#D6D2C8" stroke-width="0.5" rx="0" opacity="1"/>
<rect x="668.00" y="126.00" width="12.00" height="12.00" fill="#FFFFFF" stroke="#D6D2C8" stroke-width="0.5" rx="0" opacity="1"/>
<rect x="681.00" y="126.00" width="12.00" height="12.00" fill="#FFFFFF" stroke="#D6D2C8" stroke-width="0.5" rx="0" opacity="1"/>
<rect x="694.00" y="126.00" width="12.00" height="12.00" fill="#FFFFFF" stroke="#D6D2C8" stroke-width="0.5" rx="0" opacity="1"/>
<rect x="707.00" y="126.00" width="12.00" height="12.00" fill="#FFFFFF" stroke="#D6D2C8" stroke-width="0.5" rx="0" opacity="1"/>
<rect x="720.00" y="126.00" width="12.00" height="12.00" fill="#FFFFFF" stroke="#D6D2C8" stroke-width="0.5" rx="0" opacity="1"/>
<rect x="733.00" y="126.00" width="12.00" height="12.00" fill="#FFFFFF" stroke="#D6D2C8" stroke-width="0.5" rx="0" opacity="1"/>
<rect x="746.00" y="126.00" width="12.00" height="12.00" fill="#FFFFFF" stroke="#D6D2C8" stroke-width="0.5" rx="0" opacity="1"/>
<rect x="759.00" y="126.00" width="12.00" height="12.00" fill="#FFFFFF" stroke="#D6D2C8" stroke-width="0.5" rx="0" opacity="1"/>
<rect x="590.00" y="139.00" width="12.00" height="12.00" fill="#FFFFFF" stroke="#D6D2C8" stroke-width="0.5" rx="0" opacity="1"/>
<rect x="603.00" y="139.00" width="12.00" height="12.00" fill="#FFFFFF" stroke="#D6D2C8" stroke-width="0.5" rx="0" opacity="1"/>
<rect x="616.00" y="139.00" width="12.00" height="12.00" fill="#22201C" stroke="#D6D2C8" stroke-width="0.5" rx="0" opacity="1"/>
<rect x="629.00" y="139.00" width="12.00" height="12.00" fill="#FFFFFF" stroke="#D6D2C8" stroke-width="0.5" rx="0" opacity="1"/>
<rect x="642.00" y="139.00" width="12.00" height="12.00" fill="#FFFFFF" stroke="#D6D2C8" stroke-width="0.5" rx="0" opacity="1"/>
<rect x="655.00" y="139.00" width="12.00" height="12.00" fill="#FFFFFF" stroke="#D6D2C8" stroke-width="0.5" rx="0" opacity="1"/>
<rect x="668.00" y="139.00" width="12.00" height="12.00" fill="#22201C" stroke="#D6D2C8" stroke-width="0.5" rx="0" opacity="1"/>
<rect x="681.00" y="139.00" width="12.00" height="12.00" fill="#22201C" stroke="#D6D2C8" stroke-width="0.5" rx="0" opacity="1"/>
<rect x="694.00" y="139.00" width="12.00" height="12.00" fill="#22201C" stroke="#D6D2C8" stroke-width="0.5" rx="0" opacity="1"/>
<rect x="707.00" y="139.00" width="12.00" height="12.00" fill="#22201C" stroke="#D6D2C8" stroke-width="0.5" rx="0" opacity="1"/>
<rect x="720.00" y="139.00" width="12.00" height="12.00" fill="#FFFFFF" stroke="#D6D2C8" stroke-width="0.5" rx="0" opacity="1"/>
<rect x="733.00" y="139.00" width="12.00" height="12.00" fill="#FFFFFF" stroke="#D6D2C8" stroke-width="0.5" rx="0" opacity="1"/>
<rect x="746.00" y="139.00" width="12.00" height="12.00" fill="#FFFFFF" stroke="#D6D2C8" stroke-width="0.5" rx="0" opacity="1"/>
<rect x="759.00" y="139.00" width="12.00" height="12.00" fill="#FFFFFF" stroke="#D6D2C8" stroke-width="0.5" rx="0" opacity="1"/>
<rect x="590.00" y="152.00" width="12.00" height="12.00" fill="#FFFFFF" stroke="#D6D2C8" stroke-width="0.5" rx="0" opacity="1"/>
<rect x="603.00" y="152.00" width="12.00" height="12.00" fill="#FFFFFF" stroke="#D6D2C8" stroke-width="0.5" rx="0" opacity="1"/>
<rect x="616.00" y="152.00" width="12.00" height="12.00" fill="#FFFFFF" stroke="#D6D2C8" stroke-width="0.5" rx="0" opacity="1"/>
<rect x="629.00" y="152.00" width="12.00" height="12.00" fill="#FFFFFF" stroke="#D6D2C8" stroke-width="0.5" rx="0" opacity="1"/>
<rect x="642.00" y="152.00" width="12.00" height="12.00" fill="#FFFFFF" stroke="#D6D2C8" stroke-width="0.5" rx="0" opacity="1"/>
<rect x="655.00" y="152.00" width="12.00" height="12.00" fill="#22201C" stroke="#D6D2C8" stroke-width="0.5" rx="0" opacity="1"/>
<rect x="668.00" y="152.00" width="12.00" height="12.00" fill="#FFFFFF" stroke="#D6D2C8" stroke-width="0.5" rx="0" opacity="1"/>
<rect x="681.00" y="152.00" width="12.00" height="12.00" fill="#FFFFFF" stroke="#D6D2C8" stroke-width="0.5" rx="0" opacity="1"/>
<rect x="694.00" y="152.00" width="12.00" height="12.00" fill="#FFFFFF" stroke="#D6D2C8" stroke-width="0.5" rx="0" opacity="1"/>
<rect x="707.00" y="152.00" width="12.00" height="12.00" fill="#FFFFFF" stroke="#D6D2C8" stroke-width="0.5" rx="0" opacity="1"/>
<rect x="720.00" y="152.00" width="12.00" height="12.00" fill="#FFFFFF" stroke="#D6D2C8" stroke-width="0.5" rx="0" opacity="1"/>
<rect x="733.00" y="152.00" width="12.00" height="12.00" fill="#FFFFFF" stroke="#D6D2C8" stroke-width="0.5" rx="0" opacity="1"/>
<rect x="746.00" y="152.00" width="12.00" height="12.00" fill="#FFFFFF" stroke="#D6D2C8" stroke-width="0.5" rx="0" opacity="1"/>
<rect x="759.00" y="152.00" width="12.00" height="12.00" fill="#FFFFFF" stroke="#D6D2C8" stroke-width="0.5" rx="0" opacity="1"/>
<rect x="590.00" y="165.00" width="12.00" height="12.00" fill="#FFFFFF" stroke="#D6D2C8" stroke-width="0.5" rx="0" opacity="1"/>
<rect x="603.00" y="165.00" width="12.00" height="12.00" fill="#FFFFFF" stroke="#D6D2C8" stroke-width="0.5" rx="0" opacity="1"/>
<rect x="616.00" y="165.00" width="12.00" height="12.00" fill="#FFFFFF" stroke="#D6D2C8" stroke-width="0.5" rx="0" opacity="1"/>
<rect x="629.00" y="165.00" width="12.00" height="12.00" fill="#FFFFFF" stroke="#D6D2C8" stroke-width="0.5" rx="0" opacity="1"/>
<rect x="642.00" y="165.00" width="12.00" height="12.00" fill="#FFFFFF" stroke="#D6D2C8" stroke-width="0.5" rx="0" opacity="1"/>
<rect x="655.00" y="165.00" width="12.00" height="12.00" fill="#22201C" stroke="#D6D2C8" stroke-width="0.5" rx="0" opacity="1"/>
<rect x="668.00" y="165.00" width="12.00" height="12.00" fill="#FFFFFF" stroke="#D6D2C8" stroke-width="0.5" rx="0" opacity="1"/>
<rect x="681.00" y="165.00" width="12.00" height="12.00" fill="#FFFFFF" stroke="#D6D2C8" stroke-width="0.5" rx="0" opacity="1"/>
<rect x="694.00" y="165.00" width="12.00" height="12.00" fill="#22201C" stroke="#D6D2C8" stroke-width="0.5" rx="0" opacity="1"/>
<rect x="707.00" y="165.00" width="12.00" height="12.00" fill="#22201C" stroke="#D6D2C8" stroke-width="0.5" rx="0" opacity="1"/>
<rect x="720.00" y="165.00" width="12.00" height="12.00" fill="#FFFFFF" stroke="#D6D2C8" stroke-width="0.5" rx="0" opacity="1"/>
<rect x="733.00" y="165.00" width="12.00" height="12.00" fill="#FFFFFF" stroke="#D6D2C8" stroke-width="0.5" rx="0" opacity="1"/>
<rect x="746.00" y="165.00" width="12.00" height="12.00" fill="#FFFFFF" stroke="#D6D2C8" stroke-width="0.5" rx="0" opacity="1"/>
<rect x="759.00" y="165.00" width="12.00" height="12.00" fill="#FFFFFF" stroke="#D6D2C8" stroke-width="0.5" rx="0" opacity="1"/>
<rect x="590.00" y="178.00" width="12.00" height="12.00" fill="#FFFFFF" stroke="#D6D2C8" stroke-width="0.5" rx="0" opacity="1"/>
<rect x="603.00" y="178.00" width="12.00" height="12.00" fill="#FFFFFF" stroke="#D6D2C8" stroke-width="0.5" rx="0" opacity="1"/>
<rect x="616.00" y="178.00" width="12.00" height="12.00" fill="#22201C" stroke="#D6D2C8" stroke-width="0.5" rx="0" opacity="1"/>
<rect x="629.00" y="178.00" width="12.00" height="12.00" fill="#FFFFFF" stroke="#D6D2C8" stroke-width="0.5" rx="0" opacity="1"/>
<rect x="642.00" y="178.00" width="12.00" height="12.00" fill="#FFFFFF" stroke="#D6D2C8" stroke-width="0.5" rx="0" opacity="1"/>
<rect x="655.00" y="178.00" width="12.00" height="12.00" fill="#22201C" stroke="#D6D2C8" stroke-width="0.5" rx="0" opacity="1"/>
<rect x="668.00" y="178.00" width="12.00" height="12.00" fill="#FFFFFF" stroke="#D6D2C8" stroke-width="0.5" rx="0" opacity="1"/>
<rect x="681.00" y="178.00" width="12.00" height="12.00" fill="#22201C" stroke="#D6D2C8" stroke-width="0.5" rx="0" opacity="1"/>
<rect x="694.00" y="178.00" width="12.00" height="12.00" fill="#FFFFFF" stroke="#D6D2C8" stroke-width="0.5" rx="0" opacity="1"/>
<rect x="707.00" y="178.00" width="12.00" height="12.00" fill="#22201C" stroke="#D6D2C8" stroke-width="0.5" rx="0" opacity="1"/>
<rect x="720.00" y="178.00" width="12.00" height="12.00" fill="#FFFFFF" stroke="#D6D2C8" stroke-width="0.5" rx="0" opacity="1"/>
<rect x="733.00" y="178.00" width="12.00" height="12.00" fill="#FFFFFF" stroke="#D6D2C8" stroke-width="0.5" rx="0" opacity="1"/>
<rect x="746.00" y="178.00" width="12.00" height="12.00" fill="#FFFFFF" stroke="#D6D2C8" stroke-width="0.5" rx="0" opacity="1"/>
<rect x="759.00" y="178.00" width="12.00" height="12.00" fill="#FFFFFF" stroke="#D6D2C8" stroke-width="0.5" rx="0" opacity="1"/>
<rect x="590.00" y="191.00" width="12.00" height="12.00" fill="#FFFFFF" stroke="#D6D2C8" stroke-width="0.5" rx="0" opacity="1"/>
<rect x="603.00" y="191.00" width="12.00" height="12.00" fill="#FFFFFF" stroke="#D6D2C8" stroke-width="0.5" rx="0" opacity="1"/>
<rect x="616.00" y="191.00" width="12.00" height="12.00" fill="#FFFFFF" stroke="#D6D2C8" stroke-width="0.5" rx="0" opacity="1"/>
<rect x="629.00" y="191.00" width="12.00" height="12.00" fill="#FFFFFF" stroke="#D6D2C8" stroke-width="0.5" rx="0" opacity="1"/>
<rect x="642.00" y="191.00" width="12.00" height="12.00" fill="#FFFFFF" stroke="#D6D2C8" stroke-width="0.5" rx="0" opacity="1"/>
<rect x="655.00" y="191.00" width="12.00" height="12.00" fill="#22201C" stroke="#D6D2C8" stroke-width="0.5" rx="0" opacity="1"/>
<rect x="668.00" y="191.00" width="12.00" height="12.00" fill="#FFFFFF" stroke="#D6D2C8" stroke-width="0.5" rx="0" opacity="1"/>
<rect x="681.00" y="191.00" width="12.00" height="12.00" fill="#22201C" stroke="#D6D2C8" stroke-width="0.5" rx="0" opacity="1"/>
<rect x="694.00" y="191.00" width="12.00" height="12.00" fill="#22201C" stroke="#D6D2C8" stroke-width="0.5" rx="0" opacity="1"/>
<rect x="707.00" y="191.00" width="12.00" height="12.00" fill="#FFFFFF" stroke="#D6D2C8" stroke-width="0.5" rx="0" opacity="1"/>
<rect x="720.00" y="191.00" width="12.00" height="12.00" fill="#FFFFFF" stroke="#D6D2C8" stroke-width="0.5" rx="0" opacity="1"/>
<rect x="733.00" y="191.00" width="12.00" height="12.00" fill="#FFFFFF" stroke="#D6D2C8" stroke-width="0.5" rx="0" opacity="1"/>
<rect x="746.00" y="191.00" width="12.00" height="12.00" fill="#FFFFFF" stroke="#D6D2C8" stroke-width="0.5" rx="0" opacity="1"/>
<rect x="759.00" y="191.00" width="12.00" height="12.00" fill="#FFFFFF" stroke="#D6D2C8" stroke-width="0.5" rx="0" opacity="1"/>
<rect x="590.00" y="204.00" width="12.00" height="12.00" fill="#FFFFFF" stroke="#D6D2C8" stroke-width="0.5" rx="0" opacity="1"/>
<rect x="603.00" y="204.00" width="12.00" height="12.00" fill="#FFFFFF" stroke="#D6D2C8" stroke-width="0.5" rx="0" opacity="1"/>
<rect x="616.00" y="204.00" width="12.00" height="12.00" fill="#FFFFFF" stroke="#D6D2C8" stroke-width="0.5" rx="0" opacity="1"/>
<rect x="629.00" y="204.00" width="12.00" height="12.00" fill="#FFFFFF" stroke="#D6D2C8" stroke-width="0.5" rx="0" opacity="1"/>
<rect x="642.00" y="204.00" width="12.00" height="12.00" fill="#FFFFFF" stroke="#D6D2C8" stroke-width="0.5" rx="0" opacity="1"/>
<rect x="655.00" y="204.00" width="12.00" height="12.00" fill="#FFFFFF" stroke="#D6D2C8" stroke-width="0.5" rx="0" opacity="1"/>
<rect x="668.00" y="204.00" width="12.00" height="12.00" fill="#FFFFFF" stroke="#D6D2C8" stroke-width="0.5" rx="0" opacity="1"/>
<rect x="681.00" y="204.00" width="12.00" height="12.00" fill="#FFFFFF" stroke="#D6D2C8" stroke-width="0.5" rx="0" opacity="1"/>
<rect x="694.00" y="204.00" width="12.00" height="12.00" fill="#FFFFFF" stroke="#D6D2C8" stroke-width="0.5" rx="0" opacity="1"/>
<rect x="707.00" y="204.00" width="12.00" height="12.00" fill="#FFFFFF" stroke="#D6D2C8" stroke-width="0.5" rx="0" opacity="1"/>
<rect x="720.00" y="204.00" width="12.00" height="12.00" fill="#FFFFFF" stroke="#D6D2C8" stroke-width="0.5" rx="0" opacity="1"/>
<rect x="733.00" y="204.00" width="12.00" height="12.00" fill="#22201C" stroke="#D6D2C8" stroke-width="0.5" rx="0" opacity="1"/>
<rect x="746.00" y="204.00" width="12.00" height="12.00" fill="#22201C" stroke="#D6D2C8" stroke-width="0.5" rx="0" opacity="1"/>
<rect x="759.00" y="204.00" width="12.00" height="12.00" fill="#22201C" stroke="#D6D2C8" stroke-width="0.5" rx="0" opacity="1"/>
<rect x="590.00" y="217.00" width="12.00" height="12.00" fill="#FFFFFF" stroke="#D6D2C8" stroke-width="0.5" rx="0" opacity="1"/>
<rect x="603.00" y="217.00" width="12.00" height="12.00" fill="#FFFFFF" stroke="#D6D2C8" stroke-width="0.5" rx="0" opacity="1"/>
<rect x="616.00" y="217.00" width="12.00" height="12.00" fill="#FFFFFF" stroke="#D6D2C8" stroke-width="0.5" rx="0" opacity="1"/>
<rect x="629.00" y="217.00" width="12.00" height="12.00" fill="#FFFFFF" stroke="#D6D2C8" stroke-width="0.5" rx="0" opacity="1"/>
<rect x="642.00" y="217.00" width="12.00" height="12.00" fill="#FFFFFF" stroke="#D6D2C8" stroke-width="0.5" rx="0" opacity="1"/>
<rect x="655.00" y="217.00" width="12.00" height="12.00" fill="#FFFFFF" stroke="#D6D2C8" stroke-width="0.5" rx="0" opacity="1"/>
<rect x="668.00" y="217.00" width="12.00" height="12.00" fill="#FFFFFF" stroke="#D6D2C8" stroke-width="0.5" rx="0" opacity="1"/>
<rect x="681.00" y="217.00" width="12.00" height="12.00" fill="#FFFFFF" stroke="#D6D2C8" stroke-width="0.5" rx="0" opacity="1"/>
<rect x="694.00" y="217.00" width="12.00" height="12.00" fill="#FFFFFF" stroke="#D6D2C8" stroke-width="0.5" rx="0" opacity="1"/>
<rect x="707.00" y="217.00" width="12.00" height="12.00" fill="#FFFFFF" stroke="#D6D2C8" stroke-width="0.5" rx="0" opacity="1"/>
<rect x="720.00" y="217.00" width="12.00" height="12.00" fill="#22201C" stroke="#D6D2C8" stroke-width="0.5" rx="0" opacity="1"/>
<rect x="733.00" y="217.00" width="12.00" height="12.00" fill="#FFFFFF" stroke="#D6D2C8" stroke-width="0.5" rx="0" opacity="1"/>
<rect x="746.00" y="217.00" width="12.00" height="12.00" fill="#22201C" stroke="#D6D2C8" stroke-width="0.5" rx="0" opacity="1"/>
<rect x="759.00" y="217.00" width="12.00" height="12.00" fill="#22201C" stroke="#D6D2C8" stroke-width="0.5" rx="0" opacity="1"/>
<rect x="590.00" y="230.00" width="12.00" height="12.00" fill="#FFFFFF" stroke="#D6D2C8" stroke-width="0.5" rx="0" opacity="1"/>
<rect x="603.00" y="230.00" width="12.00" height="12.00" fill="#FFFFFF" stroke="#D6D2C8" stroke-width="0.5" rx="0" opacity="1"/>
<rect x="616.00" y="230.00" width="12.00" height="12.00" fill="#FFFFFF" stroke="#D6D2C8" stroke-width="0.5" rx="0" opacity="1"/>
<rect x="629.00" y="230.00" width="12.00" height="12.00" fill="#FFFFFF" stroke="#D6D2C8" stroke-width="0.5" rx="0" opacity="1"/>
<rect x="642.00" y="230.00" width="12.00" height="12.00" fill="#FFFFFF" stroke="#D6D2C8" stroke-width="0.5" rx="0" opacity="1"/>
<rect x="655.00" y="230.00" width="12.00" height="12.00" fill="#FFFFFF" stroke="#D6D2C8" stroke-width="0.5" rx="0" opacity="1"/>
<rect x="668.00" y="230.00" width="12.00" height="12.00" fill="#FFFFFF" stroke="#D6D2C8" stroke-width="0.5" rx="0" opacity="1"/>
<rect x="681.00" y="230.00" width="12.00" height="12.00" fill="#FFFFFF" stroke="#D6D2C8" stroke-width="0.5" rx="0" opacity="1"/>
<rect x="694.00" y="230.00" width="12.00" height="12.00" fill="#FFFFFF" stroke="#D6D2C8" stroke-width="0.5" rx="0" opacity="1"/>
<rect x="707.00" y="230.00" width="12.00" height="12.00" fill="#FFFFFF" stroke="#D6D2C8" stroke-width="0.5" rx="0" opacity="1"/>
<rect x="720.00" y="230.00" width="12.00" height="12.00" fill="#22201C" stroke="#D6D2C8" stroke-width="0.5" rx="0" opacity="1"/>
<rect x="733.00" y="230.00" width="12.00" height="12.00" fill="#22201C" stroke="#D6D2C8" stroke-width="0.5" rx="0" opacity="1"/>
<rect x="746.00" y="230.00" width="12.00" height="12.00" fill="#FFFFFF" stroke="#D6D2C8" stroke-width="0.5" rx="0" opacity="1"/>
<rect x="759.00" y="230.00" width="12.00" height="12.00" fill="#FFFFFF" stroke="#D6D2C8" stroke-width="0.5" rx="0" opacity="1"/>
<rect x="590.00" y="243.00" width="12.00" height="12.00" fill="#FFFFFF" stroke="#D6D2C8" stroke-width="0.5" rx="0" opacity="1"/>
<rect x="603.00" y="243.00" width="12.00" height="12.00" fill="#FFFFFF" stroke="#D6D2C8" stroke-width="0.5" rx="0" opacity="1"/>
<rect x="616.00" y="243.00" width="12.00" height="12.00" fill="#FFFFFF" stroke="#D6D2C8" stroke-width="0.5" rx="0" opacity="1"/>
<rect x="629.00" y="243.00" width="12.00" height="12.00" fill="#22201C" stroke="#D6D2C8" stroke-width="0.5" rx="0" opacity="1"/>
<rect x="642.00" y="243.00" width="12.00" height="12.00" fill="#FFFFFF" stroke="#D6D2C8" stroke-width="0.5" rx="0" opacity="1"/>
<rect x="655.00" y="243.00" width="12.00" height="12.00" fill="#FFFFFF" stroke="#D6D2C8" stroke-width="0.5" rx="0" opacity="1"/>
<rect x="668.00" y="243.00" width="12.00" height="12.00" fill="#FFFFFF" stroke="#D6D2C8" stroke-width="0.5" rx="0" opacity="1"/>
<rect x="681.00" y="243.00" width="12.00" height="12.00" fill="#FFFFFF" stroke="#D6D2C8" stroke-width="0.5" rx="0" opacity="1"/>
<rect x="694.00" y="243.00" width="12.00" height="12.00" fill="#FFFFFF" stroke="#D6D2C8" stroke-width="0.5" rx="0" opacity="1"/>
<rect x="707.00" y="243.00" width="12.00" height="12.00" fill="#FFFFFF" stroke="#D6D2C8" stroke-width="0.5" rx="0" opacity="1"/>
<rect x="720.00" y="243.00" width="12.00" height="12.00" fill="#22201C" stroke="#D6D2C8" stroke-width="0.5" rx="0" opacity="1"/>
<rect x="733.00" y="243.00" width="12.00" height="12.00" fill="#22201C" stroke="#D6D2C8" stroke-width="0.5" rx="0" opacity="1"/>
<rect x="746.00" y="243.00" width="12.00" height="12.00" fill="#FFFFFF" stroke="#D6D2C8" stroke-width="0.5" rx="0" opacity="1"/>
<rect x="759.00" y="243.00" width="12.00" height="12.00" fill="#FFFFFF" stroke="#D6D2C8" stroke-width="0.5" rx="0" opacity="1"/>
<rect x="589.00" y="73.00" width="65.00" height="65.00" fill="none" stroke="#C0503A" stroke-width="1.6" rx="0" opacity="1"/>
<rect x="654.00" y="138.00" width="65.00" height="65.00" fill="none" stroke="#3A6EA5" stroke-width="1.6" rx="0" opacity="1"/>
<rect x="719.00" y="203.00" width="52.00" height="52.00" fill="none" stroke="#6E8B3D" stroke-width="1.6" rx="0" opacity="1"/>
<text x="24.00" y="300.00" font-size="11" fill="#8A857B" text-anchor="start" font-weight="400" opacity="1">The two node-link diagrams are the same graph with different random seeds. Nothing about the data changed;</text>
<text x="24.00" y="318.00" font-size="11" fill="#8A857B" text-anchor="start" font-weight="400" opacity="1">the picture did. Readers nonetheless treat central position as importance and proximity as similarity.</text>
<text x="24.00" y="344.00" font-size="11" fill="#C0503A" text-anchor="start" font-weight="400" opacity="1">The matrix has no layout to misread: clusters appear as dense blocks and adjacency lookup is exact.</text>
</svg>