<svg xmlns="http://www.w3.org/2000/svg" viewBox="0 0 880 380" width="880" height="380" font-family="ui-sans-serif, -apple-system, 'Segoe UI', Roboto, Helvetica, Arial, sans-serif">
<rect width="880" height="380" fill="#FBFAF7"/>
<text x="24.00" y="30.00" font-size="13" fill="#22201C" text-anchor="start" font-weight="600" opacity="1">The baseline must match what the encoding claims</text>
<text x="70.00" y="60.00" font-size="12" fill="#22201C" text-anchor="start" font-weight="600" opacity="1">Length encoding — bar length IS the value</text>
<line x1="70.00" y1="206.00" x2="220.00" y2="206.00" stroke="#8A857B" stroke-width="1" opacity="1" stroke-linecap="round"/>
<line x1="70.00" y1="76.00" x2="70.00" y2="206.00" stroke="#8A857B" stroke-width="1" opacity="1" stroke-linecap="round"/>
<rect x="96.00" y="107.69" width="40.00" height="98.31" fill="#C0503A" stroke="none" stroke-width="1" rx="1" opacity="1"/>
<text x="116.00" y="221.00" font-size="10" fill="#8A857B" text-anchor="middle" font-weight="400" opacity="1">Ours</text>
<text x="116.00" y="101.69" font-size="9.5" fill="#8A857B" text-anchor="middle" font-weight="400" opacity="1">52.1%</text>
<rect x="158.00" y="137.75" width="40.00" height="68.25" fill="#8A857B" stroke="none" stroke-width="1" rx="1" opacity="1"/>
<text x="178.00" y="221.00" font-size="10" fill="#8A857B" text-anchor="middle" font-weight="400" opacity="1">Comp.</text>
<text x="178.00" y="131.75" font-size="9.5" fill="#8A857B" text-anchor="middle" font-weight="400" opacity="1">48.4%</text>
<text x="66.00" y="210.00" font-size="9.5" fill="#8A857B" text-anchor="end" font-weight="400" opacity="1">40</text>
<text x="70.00" y="68.00" font-size="10.5" fill="#C0503A" text-anchor="start" font-weight="400" opacity="1">axis from 40</text>
<line x1="300.00" y1="206.00" x2="450.00" y2="206.00" stroke="#8A857B" stroke-width="1" opacity="1" stroke-linecap="round"/>
<line x1="300.00" y1="76.00" x2="300.00" y2="206.00" stroke="#8A857B" stroke-width="1" opacity="1" stroke-linecap="round"/>
<rect x="326.00" y="85.05" width="40.00" height="120.95" fill="#C0503A" stroke="none" stroke-width="1" rx="1" opacity="1"/>
<text x="346.00" y="221.00" font-size="10" fill="#8A857B" text-anchor="middle" font-weight="400" opacity="1">Ours</text>
<text x="346.00" y="79.05" font-size="9.5" fill="#8A857B" text-anchor="middle" font-weight="400" opacity="1">52.1%</text>
<rect x="388.00" y="93.64" width="40.00" height="112.36" fill="#8A857B" stroke="none" stroke-width="1" rx="1" opacity="1"/>
<text x="408.00" y="221.00" font-size="10" fill="#8A857B" text-anchor="middle" font-weight="400" opacity="1">Comp.</text>
<text x="408.00" y="87.64" font-size="9.5" fill="#8A857B" text-anchor="middle" font-weight="400" opacity="1">48.4%</text>
<text x="296.00" y="210.00" font-size="9.5" fill="#8A857B" text-anchor="end" font-weight="400" opacity="1">0</text>
<text x="300.00" y="68.00" font-size="10.5" fill="#22201C" text-anchor="start" font-weight="400" opacity="1">axis from 0</text>
<text x="70.00" y="250.00" font-size="10.5" fill="#C0503A" text-anchor="start" font-weight="400" opacity="1">Displayed ratio ≈ 3:1.  Actual ratio 1.08:1.  Lie factor ≈ 2.8.</text>
<text x="500.00" y="60.00" font-size="12" fill="#22201C" text-anchor="start" font-weight="600" opacity="1">Position encoding — zero is not a meaningful reference</text>
<line x1="500.00" y1="206.00" x2="650.00" y2="206.00" stroke="#8A857B" stroke-width="1" opacity="1" stroke-linecap="round"/>
<line x1="500.00" y1="76.00" x2="500.00" y2="206.00" stroke="#8A857B" stroke-width="1" opacity="1" stroke-linecap="round"/>
<path d="M 500.00 85.01 L 516.67 85.47 L 533.33 84.26 L 550.00 83.24 L 566.67 83.80 L 583.33 82.59 L 600.00 82.04 L 616.67 82.78 L 633.33 81.48 L 650.00 81.76" fill="none" stroke="#C0503A" stroke-width="2" opacity="1" stroke-linejoin="round" stroke-linecap="round"/>
<text x="500.00" y="68.00" font-size="10.5" fill="#C0503A" text-anchor="start" font-weight="400" opacity="1">axis from 0</text>
<text x="496.00" y="210.00" font-size="9.5" fill="#8A857B" text-anchor="end" font-weight="400" opacity="1">0</text>
<line x1="710.00" y1="206.00" x2="860.00" y2="206.00" stroke="#8A857B" stroke-width="1" opacity="1" stroke-linecap="round"/>
<line x1="710.00" y1="76.00" x2="710.00" y2="206.00" stroke="#8A857B" stroke-width="1" opacity="1" stroke-linecap="round"/>
<path d="M 710.00 163.29 L 726.67 172.57 L 743.33 148.43 L 760.00 128.00 L 776.67 139.14 L 793.33 115.00 L 810.00 103.86 L 826.67 118.71 L 843.33 92.71 L 860.00 98.29" fill="none" stroke="#22201C" stroke-width="2" opacity="1" stroke-linejoin="round" stroke-linecap="round"/>
<text x="710.00" y="68.00" font-size="10.5" fill="#22201C" text-anchor="start" font-weight="400" opacity="1">axis 1.28–1.35</text>
<text x="706.00" y="210.00" font-size="9.5" fill="#8A857B" text-anchor="end" font-weight="400" opacity="1">1.28</text>
<text x="500.00" y="250.00" font-size="10.5" fill="#C0503A" text-anchor="start" font-weight="400" opacity="1">Forcing zero compresses the signal into a flat line and conceals it.</text>
<line x1="460.00" y1="52.00" x2="460.00" y2="262.00" stroke="#D6D2C8" stroke-width="1" opacity="1" stroke-linecap="round"/>
<text x="24.00" y="300.00" font-size="11" fill="#22201C" text-anchor="start" font-weight="400" opacity="1">The folk rule 'always start at zero' is half right and confidently misapplied.</text>
<text x="24.00" y="322.00" font-size="11" fill="#8A857B" text-anchor="start" font-weight="400" opacity="1">Length encodings require zero, because truncating breaks the identity between a mark's length and its value.</text>
<text x="24.00" y="344.00" font-size="11" fill="#8A857B" text-anchor="start" font-weight="400" opacity="1">Position encodings require the data's meaningful reference point — which for an exchange rate is not zero.</text>
<text x="24.00" y="370.00" font-size="11" fill="#C0503A" text-anchor="start" font-weight="400" opacity="1">State the principle, not the two cases.</text>
</svg>